# xmcd
#
# Track frame offsets:
#	183
#	19083
#	45305
#	62088
#	79745
#	98295
#	115433
#	133373
#	154943
#	172798
#	195795
#	213478
#	232265
#	252248
#
# Disc length: 3594 seconds
#
# Revision: 1
# Processed by: cddbd v1.5.2PL0 Copyright (c) Steve Scherf et al.
# Submitted via: audiograbber 1.83.01
#
DISCID=b30e080e
DTITLE=Various Artist - Soul love
DYEAR=1989
DGENRE=Soul
TTITLE0=Don't walk away
TTITLE1=Superstar ( Don't you remember ?)
TTITLE2=A broken heart can mend
TTITLE3=Deja vu
TTITLE4=Want to wake up with you
TTITLE5=Shining star
TTITLE6=Suspicious minds
TTITLE7=Who's zooming who ?
TTITLE8=I think it's love
TTITLE9=Can't we try
TTITLE10=Single life
TTITLE11=It's gonna take a miracle
TTITLE12=Dark is the night
TTITLE13=Wind beneath my wings
EXTD=CD aus einer Serie ( Heart and Soul ]\nEine meiner Lieblings - CDs
EXTT0=Interpret - Four Tops
EXTT1=Interpret - Vandross, Luther
EXTT2=O'Neal, Alexander
EXTT3=Warwick, Dionne
EXTT4=Gardiner, Boris
EXTT5=Manhattans
EXTT6=Staton, Candy
EXTT7=Franklin, Aretha
EXTT8=Jackson, Jermaine
EXTT9=Pendergrass, Teddy
EXTT10=Cameo
EXTT11=Williams, Deneice
EXTT12=Shakatak
EXTT13=Rawls, Lou
PLAYORDER=
